<svg width="250" height="371" viewBox="0 0 250 371" fill="none" xmlns="http://www.w3.org/2000/svg">
<path d="M0 246C0 176.964 55.9644 121 125 121C194.036 121 250 176.964 250 246C250 315.036 194.036 371 125 371C55.9644 371 0 315.036 0 246Z" fill="#3A0909"/>
<path d="M203.125 246C203.125 227.152 194.52 211.381 180.542 207.733C178.547 207.213 176.439 206.938 174.233 206.938C150.977 206.938 130.675 228.325 121.472 238.797C119.805 236.937 117.881 234.727 115.748 232.355C106.822 222.433 94.1203 209.65 80.1641 207.322C79.5234 207.216 78.8797 207.131 78.2344 207.07C77.4141 206.992 76.5937 206.938 75.7672 206.938C73.5609 206.938 71.4531 207.213 69.4578 207.733C55.4797 211.381 46.875 227.153 46.875 246C46.875 260.136 51.7156 272.541 60.0312 279.4C60.4281 279.727 60.8328 280.041 61.2422 280.342C62.0656 280.944 62.9203 281.494 63.8047 281.989C67.3422 283.967 71.3531 285.062 75.7672 285.062C76.4719 285.062 77.1734 285.041 77.875 285.003C78.1047 284.989 78.3344 284.966 78.5625 284.948C79.0313 284.916 79.5016 284.881 79.9656 284.831C80.225 284.802 80.4812 284.764 80.7391 284.731C81.1797 284.675 81.6187 284.62 82.0578 284.55C82.2984 284.512 82.5359 284.464 82.775 284.422C83.2375 284.339 83.7 284.256 84.1609 284.158C84.3531 284.117 84.5438 284.07 84.7359 284.028C85.2578 283.911 85.7781 283.787 86.2953 283.652C86.4062 283.622 86.5188 283.591 86.6297 283.559C103.88 278.911 118.65 264.505 126.289 255.811C135.661 266.263 155.172 285.062 174.233 285.062C178.647 285.062 182.659 283.967 186.195 281.987C187.078 281.494 187.933 280.942 188.758 280.341C189.169 280.041 189.572 279.725 189.969 279.398C198.284 272.541 203.125 260.136 203.125 246ZM75.7672 273.639C63.3547 273.639 50.1312 261.239 50.1312 246C50.1312 228.711 61.6297 214.641 75.7672 214.641C75.8031 214.641 75.8422 214.645 75.8781 214.645C76.3875 214.648 76.9047 214.694 77.4187 214.723C93.1937 216.172 110.931 237.647 117.023 244.358C109.03 253.775 90.3609 273.639 75.7672 273.639ZM174.233 277.359C173.627 277.359 173.009 277.306 172.394 277.267C156.498 275.859 136.839 256.945 130.786 250.281C136.911 242.722 158.072 218.361 174.233 218.361C186.645 218.361 199.869 230.759 199.869 245.998C199.869 257.886 194.433 268.25 186.442 273.569C182.811 275.986 178.65 277.359 174.233 277.359Z" fill="#FAE0E0"/>
<path d="M67.8749 232.413H73.7624V238.188H67.8749V232.413Z" fill="#FAE0E0"/>
<path d="M78.3119 232.413H84.1994V238.188H78.3119V232.413Z" fill="#FAE0E0"/>
<path d="M88.7489 232.413H94.6364V238.188H88.7489V232.413Z" fill="#FAE0E0"/>
<path d="M153.812 254.288H159.7V260.062H153.812V254.288Z" fill="#FAE0E0"/>
<path d="M164.249 254.288H170.137V260.062H164.249V254.288Z" fill="#FAE0E0"/>
<path d="M174.686 254.288H180.574V260.062H174.686V254.288Z" fill="#FAE0E0"/>
<path d="M25 100C25 44.7715 69.7715 0 125 0C180.228 0 225 44.7715 225 100C225 155.228 180.228 200 125 200C69.7715 200 25 155.228 25 100Z" fill="#3A0909"/>
<path d="M95.4097 120.037C95.4097 121.728 95.6133 123.199 96.0204 124.449C96.4727 125.625 97.0381 126.618 97.7166 127.426C98.3951 128.162 99.1641 128.713 100.023 129.081C100.928 129.449 101.855 129.632 102.805 129.632C103.484 129.632 104.185 129.522 104.909 129.301C105.678 129.007 106.356 128.603 106.944 128.088C107.577 127.5 108.098 126.765 108.505 125.882C108.912 124.926 109.115 123.75 109.115 122.353C109.115 120 108.143 118.235 106.198 117.059C104.298 115.882 101.629 114.706 98.1915 113.529C96.7893 113.015 95.4097 112.426 94.0527 111.765C92.741 111.029 91.5649 110.11 90.5245 109.007C89.4842 107.831 88.6474 106.397 88.0141 104.706C87.3808 102.941 87.0642 100.809 87.0642 98.3088C87.0642 94.6324 87.4939 91.6177 88.3533 89.2647C89.258 86.9118 90.4341 85.0735 91.8815 83.75C93.329 82.3529 94.9574 81.3971 96.7667 80.8824C98.576 80.2941 100.431 80 102.33 80C104.23 80 106.062 80.2941 107.826 80.8824C109.636 81.4706 111.241 82.4632 112.644 83.8603C114.046 85.2573 115.199 87.1323 116.104 89.4853C117.054 91.7647 117.619 94.6691 117.8 98.1985H108.64C108.505 95.1838 107.804 93.1618 106.537 92.1323C105.271 91.0294 103.778 90.4779 102.059 90.4779C101.516 90.4779 100.928 90.5515 100.295 90.6985C99.6616 90.7721 99.0736 90.9926 98.5308 91.3603C98.0332 91.7279 97.6035 92.2794 97.2417 93.0147C96.8798 93.6765 96.6989 94.5956 96.6989 95.7721C96.6989 97.1691 97.0155 98.3088 97.6488 99.1912C98.282 100.074 99.0962 100.809 100.091 101.397C101.132 101.912 102.308 102.39 103.62 102.831C104.931 103.272 106.266 103.75 107.623 104.265C109.025 104.779 110.382 105.404 111.694 106.14C113.051 106.875 114.249 107.868 115.29 109.118C116.33 110.294 117.167 111.801 117.8 113.64C118.433 115.404 118.75 117.61 118.75 120.257C118.75 124.007 118.275 127.169 117.325 129.743C116.421 132.243 115.222 134.265 113.729 135.809C112.236 137.353 110.518 138.419 108.573 139.007C106.673 139.669 104.728 140 102.737 140C100.702 140 98.7117 139.669 96.7667 139.007C94.8217 138.346 93.0802 137.243 91.5423 135.699C90.0496 134.154 88.8057 132.132 87.8105 129.632C86.8607 127.059 86.3405 123.86 86.25 120.037H95.4097Z" fill="#FAE0E0"/>
<path d="M124.024 164.105C123.156 168.016 121.948 170.809 120.401 172.486C118.854 174.162 116.703 175 113.948 175C113.118 175 112.288 174.938 111.458 174.814C110.665 174.752 109.854 174.659 109.024 174.534V163.639C109.778 163.763 110.552 163.887 111.344 164.011C112.137 164.136 112.929 164.167 113.722 164.105C114.778 163.918 115.552 163.235 116.042 162.056C116.571 160.876 116.835 159.573 116.835 158.145C116.835 157.089 116.722 156.096 116.495 155.165L106.25 110H114.797L121.42 142.966H121.533L127.929 110H136.25L124.024 164.105Z" fill="#FAE0E0"/>
<path d="M154.551 108.781C154.551 106.247 154.4 103.827 154.098 101.523C153.796 99.2194 153.321 97.1842 152.673 95.4178C152.025 93.6514 151.204 92.269 150.211 91.2706C149.261 90.1954 148.095 89.6578 146.713 89.6578C145.374 89.6578 144.208 90.1954 143.215 91.2706C142.222 92.269 141.401 93.6514 140.753 95.4178C140.106 97.1842 139.631 99.2194 139.328 101.523C139.026 103.827 138.875 106.247 138.875 108.781C138.875 111.239 139.026 113.619 139.328 115.923C139.631 118.227 140.106 120.262 140.753 122.029C141.401 123.795 142.222 125.216 143.215 126.291C144.208 127.29 145.374 127.789 146.713 127.789C148.095 127.789 149.261 127.29 150.211 126.291C151.204 125.216 152.025 123.795 152.673 122.029C153.321 120.262 153.796 118.227 154.098 115.923C154.4 113.619 154.551 111.239 154.551 108.781ZM130 56.25H139.199V86.2019H139.328C140.451 83.1299 141.963 80.9027 143.863 79.5203C145.806 78.0611 147.814 77.3315 149.887 77.3315C151.571 77.3315 153.234 77.9459 154.875 79.1747C156.516 80.4035 157.985 82.2851 159.28 84.8195C160.619 87.3539 161.699 90.6178 162.519 94.6114C163.34 98.5282 163.75 103.213 163.75 108.666C163.75 114.119 163.34 118.842 162.519 122.835C161.699 126.752 160.619 129.978 159.28 132.512C157.985 135.046 156.516 136.928 154.875 138.157C153.234 139.386 151.571 140 149.887 140C147.426 140 145.223 139.309 143.28 137.926C141.336 136.544 139.868 134.202 138.875 130.899H138.745V138.502H130V56.25Z" fill="#FAE0E0"/>
</svg>
